<?xml version="1.0" encoding="utf-8"?>
<!-- Generator: Adobe Illustrator 24.0.2, SVG Export Plug-In . SVG Version: 6.00 Build 0)  -->
<svg version="1.1" xmlns="http://www.w3.org/2000/svg" xmlns:xlink="http://www.w3.org/1999/xlink" x="0px" y="0px"
	 viewBox="0 0 86 19" style="enable-background:new 0 0 86 19;" xml:space="preserve">
<style type="text/css">
	.st0{fill:#FFFFFF;}
	.st1{fill:#FFE500;stroke:#EC7F23;stroke-miterlimit:10;}
	.st2{fill:#F09120;stroke:#EC7F23;stroke-miterlimit:10;}
	.st3{fill:#F09120;stroke:#EC7F23;stroke-width:2;stroke-miterlimit:10;}
	.st4{fill:#FFE500;}
	.st5{fill:#F09120;}
	.st6{fill:#FFE500;stroke:#EC7F23;stroke-width:0.75;stroke-miterlimit:10;}
	.st7{fill:#F09120;stroke:#EC7F23;stroke-width:0.75;stroke-miterlimit:10;}
	.st8{fill:#E41E2F;}
	.st9{fill:#EC7F23;stroke:#EC7F23;stroke-width:0.6691;stroke-miterlimit:10;}
	.st10{fill:#EC7F23;stroke:#EC7F23;stroke-width:2.2304;stroke-miterlimit:10;}
</style>
<g id="Layer_2">
	<rect class="st0" width="86" height="19"/>
</g>
<g id="Layer_1">
	<g>
		<g>
			<path class="st1" d="M33.9,1.7c0,0,0.2-0.3,1.2-0.1c0,0,0.1-0.5,1-0.4c0,0,0.2,0.4,0,1.2c0,0,0.4,0.5,0.4,1.1L33.9,1.7z"/>
			<path class="st2" d="M36.5,3.5l-2.7-1.8l0,0c0,0,0.1-0.2,0.6-0.2c0.2,0,0.3,0,0.5,0c0-0.1,0.2-0.5,1-0.4l0,0l0,0
				c0,0,0.2,0.5,0,1.2C36.2,2.4,36.5,2.8,36.5,3.5L36.5,3.5z M33.9,1.7l2.5,1.6c0-0.6-0.4-1-0.4-1l0,0l0,0c0.2-0.6,0-1,0-1.1
				c-0.8,0-0.9,0.4-0.9,0.4l0,0l0,0c-0.2,0-0.4-0.1-0.6-0.1C34.2,1.6,34,1.6,33.9,1.7z"/>
		</g>
		<g>
			<path class="st3" d="M36,2.3c-0.3-0.6-1-0.7-1-0.7l0-0.1C35.1,1.5,35.7,1.6,36,2.3L36,2.3z"/>
		</g>
		<g>
			<path class="st4" d="M35.1,2.4c-2.8-1.8-6.1-1.3-7.3,1.1c-1.1,2.1-0.2,5,1.9,6.8l-2.8,6.8l0.6,0.7l3.7-6.4
				c2.7,1.3,5.6,0.7,6.7-1.5C39.2,7.6,37.9,4.2,35.1,2.4z"/>
			<path class="st5" d="M27.5,18l-0.7-0.8l2.8-6.8c-1-0.9-1.8-2.1-2.2-3.3c-0.4-1.3-0.3-2.5,0.2-3.5c0.4-0.7,0.9-1.3,1.6-1.7
				c0.7-0.4,1.5-0.6,2.3-0.6c1.2,0,2.4,0.4,3.5,1.1c1.6,1,2.8,2.6,3.2,4.3C38.6,7.9,38.5,9,38,10c-0.4,0.7-0.9,1.3-1.6,1.7
				c-0.7,0.4-1.5,0.6-2.3,0.6l0,0c-0.9,0-1.9-0.2-2.8-0.7L27.5,18z M26.9,17.2l0.6,0.7l3.7-6.4l0,0c0.9,0.5,1.9,0.7,2.8,0.7l0,0
				c0.8,0,1.6-0.2,2.3-0.6c0.7-0.4,1.2-0.9,1.6-1.6c0.5-1,0.6-2.1,0.3-3.3C37.8,5,36.6,3.5,35,2.4c-1.1-0.7-2.3-1.1-3.4-1.1
				c-0.8,0-1.6,0.2-2.3,0.6c-0.7,0.4-1.2,0.9-1.6,1.6c-1,2-0.2,4.9,1.9,6.8l0,0L26.9,17.2z"/>
		</g>
		<g>
			<path class="st6" d="M35.1,2.4c-2.8-1.8-6.1-1.3-7.3,1.1c-1.1,2.1-0.2,5,1.9,6.8l-2.8,6.8l0.6,0.7l3.7-6.4
				c2.7,1.3,5.6,0.7,6.7-1.5C39.2,7.6,37.9,4.2,35.1,2.4z"/>
			<path class="st7" d="M27.6,17.9l-0.7-0.8l2.8-6.8c-1-0.9-1.8-2.1-2.2-3.3c-0.4-1.3-0.3-2.5,0.2-3.5c0.4-0.7,0.9-1.3,1.6-1.7
				c0.7-0.4,1.5-0.6,2.3-0.6c1.2,0,2.4,0.4,3.5,1.1c1.6,1,2.8,2.6,3.2,4.3C38.6,7.9,38.5,9,38,10c-0.4,0.7-0.9,1.3-1.6,1.7
				c-0.7,0.4-1.5,0.6-2.3,0.6h0c-0.9,0-1.9-0.2-2.8-0.7L27.6,17.9z M26.9,17.2l0.6,0.7l3.7-6.4l0,0c0.9,0.5,1.9,0.7,2.8,0.7h0
				c0.8,0,1.6-0.2,2.3-0.6c0.7-0.4,1.2-0.9,1.6-1.6c0.5-1,0.6-2.1,0.3-3.3c-0.4-1.7-1.6-3.2-3.2-4.3c-1.1-0.7-2.3-1.1-3.4-1.1
				c-0.8,0-1.6,0.2-2.3,0.6c-0.7,0.4-1.2,0.9-1.6,1.6c-1,2-0.2,4.9,1.9,6.8l0,0L26.9,17.2z"/>
		</g>
		<path class="st8" d="M25.7,11c0,0,2.4,1.9,2,4c-0.4,2.1-0.5,1.9-0.2,2.9c0,0-1.6-1-1.5-2.8c0.1-1.8,0.2-2.1,0.2-2.8
			C26.2,12,26.2,11.4,25.7,11z"/>
		<g>
			<g>
				<path class="st9" d="M29.2,9.6c-1.1-2.4-1.2-4.3-0.4-5.7c0.6-1.2,1.8-1.8,2.7-2.1c0.9-0.3,1.7-0.3,1.8-0.3l0,0.1
					c0,0-3.2,0.1-4.4,2.3C28.1,5.4,28.3,7.2,29.2,9.6L29.2,9.6z"/>
			</g>
			<g>
				<path class="st9" d="M29.5,9.6c-0.5-1.9-0.4-3.5,0.3-4.8c1.3-2.4,4.1-3,4.2-3l0,0.1c0,0-2.9,0.6-4.1,3C29.1,6.2,29,7.8,29.5,9.6
					L29.5,9.6z"/>
			</g>
			<g>
				<path class="st9" d="M29.9,9.6c-0.2-1.2-0.1-2.3,0.3-3.3c0.3-0.8,0.9-1.6,1.6-2.3c1.3-1.2,2.6-1.8,2.7-1.8l0,0.1
					c0,0-1.4,0.6-2.6,1.8c-0.7,0.7-1.3,1.5-1.6,2.3C29.8,7.3,29.7,8.5,29.9,9.6L29.9,9.6z"/>
			</g>
			<g>
				<path class="st9" d="M30.3,10L30.3,10c-0.1,0,0.3-1.4,1-2.9c0.7-1.5,1.8-3.5,3.4-4.8l0,0.1c-1.6,1.3-2.7,3.3-3.4,4.7
					C30.6,8.7,30.3,10,30.3,10z"/>
			</g>
			<g>
				<path class="st9" d="M31.1,10.6L31.1,10.6c1.5-1.3,2.6-3.3,3.3-4.8c0.7-1.6,1-3,1-3l0.1,0c0,0-0.3,1.4-1,3
					C33.7,7.3,32.6,9.4,31.1,10.6z"/>
			</g>
			<g>
				<path class="st9" d="M31.4,11L31.4,11c0-0.1,1.1-0.4,2.2-1.5c0.6-0.7,1.2-1.5,1.5-2.4c0.5-1.2,0.7-2.5,0.7-4l0.1,0
					c0,1.5-0.2,2.9-0.7,4.1c-0.4,0.9-0.9,1.7-1.5,2.4C32.5,10.7,31.4,11,31.4,11z"/>
			</g>
			<g>
				<path class="st9" d="M31.7,11.5L31.7,11.5c0-0.1,2.4-0.5,3.8-2.6c0.9-1.4,1.1-3.2,0.7-5.5l0.1,0c0.4,2.2,0.2,4.1-0.7,5.5
					C34.2,11.1,31.7,11.5,31.7,11.5z"/>
			</g>
			<g>
				<path class="st9" d="M32.6,12L32.6,12c0-0.1,2.6-0.5,3.8-2.7c0.8-1.4,0.9-3.3,0.3-5.5l0.1,0c0.6,2.3,0.5,4.1-0.3,5.6
					C35.2,11.6,32.6,12,32.6,12z"/>
			</g>
			<g>
				<path class="st4" d="M32.2,11.7c-0.1,0.2-0.9-0.1-1.8-0.7c-0.9-0.6-1.5-1.2-1.4-1.4c0.1-0.2,0.9,0.1,1.8,0.7
					C31.7,10.8,32.3,11.5,32.2,11.7z"/>
				<path class="st10" d="M32,11.8c-0.3,0-1-0.3-1.7-0.8c-0.8-0.5-1.5-1.2-1.4-1.5c0-0.1,0.1-0.1,0.2-0.1c0.3,0,1,0.3,1.7,0.8
					c0.8,0.5,1.5,1.2,1.4,1.5C32.2,11.7,32.1,11.8,32,11.8z M29.2,9.5c-0.1,0-0.1,0-0.1,0c0,0.1,0,0.2,0.3,0.5
					c0.3,0.3,0.6,0.6,1.1,0.9c0.7,0.5,1.3,0.8,1.6,0.8c0.1,0,0.1,0,0.1,0c0-0.1,0-0.2-0.3-0.5c-0.3-0.3-0.6-0.6-1.1-0.9
					C30.1,9.8,29.4,9.5,29.2,9.5z"/>
			</g>
		</g>
		<path class="st8" d="M27.6,18c0,0,2-2.6,4.5-3.3c2.5-0.7,6-2.1,7.8-5.9c0,0-0.4,7.3-6.3,9.2C29.1,18.9,27.6,18,27.6,18z"/>
		<g>
			<path class="st8" d="M40.2,10.2c0.9-0.6,1.8-1,2.9-1c0.8,0,1.4,0.2,1.9,0.6c0.5,0.4,0.7,0.9,0.7,1.5c0,0.8-0.4,1.4-1.3,1.7v0.1
				c0.1,0,0.2,0.1,0.3,0.1c0.4-0.1,0.7-0.3,0.9-0.6c0.2-0.3,0.3-0.7,0.3-1.2c0-0.6-0.2-1.1-0.6-1.5v0l0.1,0.1
				c0.5,0.4,0.7,0.9,0.7,1.6c0,0.9-0.4,1.5-1.2,1.9c0.4,0.2,0.6,0.4,0.8,0.8c0.2,0.3,0.3,0.7,0.3,1.1c0,0.6-0.2,1.1-0.6,1.5
				c-0.4,0.4-0.9,0.5-1.6,0.5H40l0.7-0.7v-2.6c-0.2,0-0.5,0-0.7,0.1l0-0.2c0.3,0,0.6-0.1,0.8-0.1v-0.3h-0.1c-0.2,0-0.5,0-0.8,0
				l0.2-0.6l0.1,0c0.1,0,0.2,0,0.3,0c0.1,0,0.2,0,0.3,0v-2.3L40.2,10.2z M45.9,13.8c0.4,0.3,0.6,0.9,0.6,1.5c0,0.7-0.2,1.3-0.6,1.7
				c-0.4,0.4-1,0.7-1.9,0.7h-3.7l-0.1-0.2h3.4c0.7,0,1.3-0.1,1.6-0.3c0.7-0.4,1.1-1,1.1-2C46.4,14.8,46.2,14.3,45.9,13.8L45.9,13.8z
				 M41.9,10.1v2.8c0,0,0.1,0,0.1,0l0.1,0c0,0,0,0,0.1,0v-2.5c0.3-0.2,0.6-0.2,0.9-0.2c0.3,0,0.6,0.1,0.8,0.2
				c0.2,0.1,0.4,0.4,0.5,0.7L44.2,11c-0.3-0.5-0.7-0.7-1.2-0.7c-0.3,0-0.5,0.1-0.8,0.3v2.3h0.2c0.7,0,1.2-0.1,1.5-0.4
				c0.3-0.3,0.5-0.7,0.5-1.2c0-0.5-0.1-0.8-0.4-1.1c-0.3-0.3-0.6-0.4-1.1-0.4C42.6,9.7,42.2,9.9,41.9,10.1z M41.9,13.4v3.4h0.3v-3
				c0.3,0,0.4,0,0.6,0c0.6,0,1,0.1,1.3,0.2c0.3,0.1,0.5,0.4,0.6,0.7h-0.1c-0.2-0.3-0.4-0.5-0.7-0.6c-0.3-0.1-0.7-0.2-1.2-0.2l-0.4,0
				v2.9h0.2l0.8,0c1-0.1,1.5-0.6,1.5-1.7c0-0.6-0.2-1.1-0.5-1.3c-0.3-0.2-1-0.4-1.9-0.4C42.3,13.4,42.1,13.4,41.9,13.4z"/>
			<path class="st8" d="M47.2,9.4h2.6L49,10.2v6.4l0.7,0.6h-2.5l0.8-0.7v-6.4L47.2,9.4z M50,9.7l-0.6,0.6v6.2l0.9,1.1h-2.8l-0.1-0.2
				h2.6l-0.7-0.9v-6.3l0.6-0.7L50,9.7z"/>
			<path class="st8" d="M56.7,9.6l-1,2.2c-0.1-0.6-0.2-1.1-0.5-1.5C54.9,10,54.5,9.9,54,9.9c-0.7,0-1.2,0.3-1.6,0.9
				c-0.4,0.6-0.6,1.4-0.6,2.5c0,2.4,0.9,3.5,2.6,3.5h0.9v-3.2H54c-0.3,0-0.5,0-0.6-0.1c-0.1,0-0.3-0.1-0.4-0.2v-0.2
				c0.1,0.1,0.3,0.2,0.4,0.2c0.1,0,0.3,0.1,0.6,0.1h1.4v-0.3h-1.5h-0.2c-0.5,0-0.8-0.2-0.8-0.7c0-0.2,0-0.3,0.1-0.4
				c0.1-0.1,0.2-0.2,0.3-0.2c0.1,0,0.2,0,0.2,0.1c0.1,0.1,0.1,0.2,0.1,0.3c0,0.2-0.1,0.3-0.2,0.3l-0.1,0c0,0-0.1,0-0.1,0.1
				c0,0.1,0.1,0.1,0.2,0.1h0.2h3.6l-0.7,0.8v3l0.7,0.7h-2.8h-0.5c-0.5,0-0.8-0.1-1.1-0.2c-0.3-0.1-0.6-0.3-0.9-0.7
				c-0.7-0.7-1.1-1.8-1.1-3c0-1.3,0.3-2.3,1-3c0.6-0.6,1.3-1,2.1-1c0.4,0,0.8,0.1,1.3,0.2c0.5,0.2,0.8,0.2,1,0.2
				C56.3,9.8,56.5,9.7,56.7,9.6z M55.3,10.9L55.3,10.9c-0.5-0.4-0.9-0.6-1.2-0.6c-0.4,0-0.8,0.2-1.1,0.5c-0.2,0.2-0.4,0.6-0.5,1
				c-0.1,0.4-0.1,0.9-0.1,1.6c0,0.8,0.1,1.5,0.2,1.9c0.1,0.4,0.4,0.8,0.8,1.2v0.1c-0.4-0.3-0.7-0.7-0.9-1.2
				c-0.2-0.5-0.3-1.2-0.3-2.1c0-1,0.2-1.7,0.5-2.2c0.3-0.5,0.8-0.8,1.4-0.8C54.6,10.2,55,10.4,55.3,10.9L55.3,10.9z M57.4,13.1
				l-0.6,0.6v2.9l0.9,1.2l-2.2,0l-2,0c-0.1,0-0.2,0-0.3,0c-0.2,0-0.5-0.1-0.7-0.3h0.1c0.2,0.1,0.6,0.2,1,0.2l0.3,0h3.4l-0.7-0.9v-3
				l0.6-0.7L57.4,13.1z M57.1,10L56.1,12L56,12l0.9-2.1L57.1,10z"/>
		</g>
	</g>
</g>
</svg>
